<svg width="415" height="115" viewBox="0 0 415 115" xmlns="http://www.w3.org/2000/svg"><defs><filter x="-4%" y="-16%" width="108%" height="132%" filterUnits="objectBoundingBox" id="a"><feOffset in="SourceAlpha" result="shadowOffsetOuter1"/><feGaussianBlur stdDeviation="4" in="shadowOffsetOuter1" result="shadowBlurOuter1"/><feColorMatrix values="0 0 0 0 0 0 0 0 0 0 0 0 0 0 0 0 0 0 0.399011145 0" in="shadowBlurOuter1" result="shadowMatrixOuter1"/><feMerge><feMergeNode in="shadowMatrixOuter1"/><feMergeNode in="SourceGraphic"/></feMerge></filter></defs><g filter="url(#a)" transform="translate(8 8)" fill-rule="nonzero" fill="none"><path d="M19.952 28.371c4.919.08 8.79 1.984 11.613 5.726 2.822 3.726 4.258 8.806 4.322 15.242-.064 6.516-1.5 11.645-4.322 15.37-2.823 3.726-6.694 5.63-11.613 5.694-4.775-.032-8.436-1.774-10.968-5.258-2.532-3.468-3.807-8.5-3.823-15.08 0-7.275 1.226-12.71 3.678-16.307 2.451-3.597 6.145-5.387 11.113-5.387zM5.162 98.774V65.968c2.015 3.258 4.209 5.613 6.612 7.064 2.387 1.436 5.29 2.13 8.694 2.113 6.403-.113 11.467-2.451 15.226-7.048 3.758-4.597 5.677-10.807 5.758-18.662-.097-7.838-2-14.08-5.742-18.71-3.742-4.612-8.79-6.983-15.145-7.08-3.404-.032-6.29.645-8.662 2.049-2.387 1.419-4.629 3.758-6.742 7.016v-7.63H0v73.694h5.161zM86.5 73.694V44.387c.016-4.322-.161-7.564-.532-9.693-.371-2.13-1.097-3.855-2.162-5.178-1.37-1.87-3.274-3.306-5.71-4.339-2.45-1.016-5.257-1.516-8.45-1.532-3.646-.016-6.791.645-9.436 1.984-2.645 1.355-4.904 3.436-6.807 6.258V0h-5.145v73.694h5.145V45.935c.032-5.564 1.42-9.87 4.145-12.919 2.726-3.048 6.581-4.597 11.581-4.645 2.29.016 4.323.387 6.097 1.113 1.758.726 3.145 1.774 4.145 3.129.855 1.048 1.403 2.403 1.645 4.08.242 1.662.355 4.468.323 8.404v28.597H86.5zM116.452 28.371c4.919.08 8.79 1.984 11.613 5.726 2.822 3.726 4.258 8.806 4.306 15.242-.048 6.516-1.484 11.645-4.306 15.37-2.823 3.726-6.694 5.63-11.613 5.694-4.775-.032-8.436-1.774-10.968-5.258-2.532-3.468-3.807-8.5-3.823-15.08 0-7.275 1.21-12.71 3.662-16.307 2.467-3.597 6.16-5.387 11.129-5.387zm-14.79 70.403V65.968c2.015 3.258 4.209 5.613 6.596 7.064 2.403 1.436 5.29 2.13 8.71 2.113 6.387-.113 11.467-2.451 15.226-7.048 3.741-4.597 5.677-10.807 5.758-18.662-.097-7.838-2-14.08-5.742-18.71-3.742-4.612-8.79-6.983-15.145-7.08-3.404-.032-6.29.645-8.678 2.049-2.37 1.419-4.613 3.758-6.726 7.016v-7.63H96.5v73.694h5.161z" fill="#A8CAE6"/><path fill="#FFF" d="M199.532 73.694l15.726-52.323h-12.726l-9.403 34.37-9.71-34.37h-11.177l-9.71 34.37-9.21-34.37h-13.016l15.29 52.323h12.21l9.613-34.162 9.92 34.162zM267.08 34.565c-2.338-5.113-5.435-8.968-9.322-11.565-3.87-2.597-8.452-3.887-13.726-3.903-7.758.161-14.048 2.838-18.87 8.016-4.84 5.193-7.34 11.952-7.485 20.258.146 8.37 2.597 15.177 7.34 20.403 4.741 5.226 10.902 7.92 18.5 8.08 5.483.033 10.144-1.257 13.967-3.87 3.822-2.613 7.048-6.726 9.71-12.323l-10.759-5.774c-1.483 3.5-3.241 6.08-5.274 7.742-2.032 1.661-4.403 2.484-7.129 2.484-3.935-.08-7.08-1.661-9.42-4.726-2.354-3.08-3.547-7.177-3.612-12.322.065-5.13 1.242-9.226 3.548-12.259 2.29-3.048 5.387-4.596 9.275-4.677 2.725-.016 5.048.758 6.983 2.306 1.92 1.565 3.517 3.952 4.807 7.194l11.468-5.064zM271.226 21.371v52.323h12.92V48c.015-5.242 1.031-9.274 3.064-12.08 2.016-2.791 4.935-4.21 8.725-4.243 1.468.017 2.775.323 3.936.952a6.685 6.685 0 012.694 2.661c.403.678.725 1.758.919 3.275.21 1.532.322 3.5.322 5.919v29.21h12.484V48c.033-5.242 1.049-9.274 3.081-12.08 2.016-2.791 4.92-4.21 8.726-4.243 1.468.017 2.774.323 3.92.952a6.587 6.587 0 012.693 2.661c.419.678.725 1.758.935 3.275.21 1.532.307 3.5.307 5.919v29.21h12.5V36.839c-.017-5.533-1.549-9.758-4.597-12.645-3.049-2.904-7.468-4.355-13.274-4.372-3.549-.016-6.646.597-9.275 1.84-2.629 1.241-4.919 3.177-6.87 5.79-1.79-2.742-3.759-4.694-5.92-5.855-2.161-1.145-4.951-1.71-8.339-1.678-3.451 0-6.516.549-9.193 1.678-2.678 1.129-5.097 2.87-7.258 5.242V21.37h-12.5zM397.468 28.887c-3.162-3.387-6.565-5.855-10.178-7.435-3.629-1.581-7.758-2.371-12.37-2.355-6.485.113-11.775 1.758-15.872 4.935-4.096 3.194-6.21 7.29-6.338 12.29-.016 4.226 1.484 7.678 4.484 10.34 2.983 2.677 7.564 4.596 13.693 5.773l7.355 1.452c2.645.484 4.468 1.065 5.484 1.742s1.484 1.645 1.451 2.903c-.048 2.033-1.032 3.662-2.935 4.855-1.903 1.21-4.484 1.823-7.726 1.855-2.92.016-5.532-.484-7.839-1.516-2.306-1.016-4.564-2.694-6.742-4.984l-9.403 7.42c2.887 3.112 6.452 5.5 10.71 7.177 4.258 1.661 9 2.5 14.21 2.516 7-.097 12.677-1.774 17.032-5.065 4.355-3.274 6.597-7.564 6.742-12.887.016-4.064-1.242-7.338-3.758-9.822-2.516-2.5-6.387-4.275-11.645-5.355l-8.581-1.758c-3.694-.726-6.21-1.516-7.548-2.371-1.323-.855-1.952-2.065-1.871-3.613.032-1.871.854-3.323 2.483-4.339 1.63-1.016 3.904-1.532 6.823-1.548 3.258 0 6 .661 8.226 1.984 2.242 1.338 4.048 3.403 5.435 6.177l8.678-8.37z"/></g></svg>